<?xml version="1.0" encoding="UTF-8"?>
<svg version="1.1" xmlns="http://www.w3.org/2000/svg" width="1005" height="944">
<path d="M0 0 C2.7943637 -0.00245813 5.58872501 -0.00637339 8.38308716 -0.01017761 C15.14930696 -0.018426 21.91551804 -0.02122978 28.68174245 -0.02178999 C34.18982552 -0.02226785 39.69790576 -0.02433595 45.20598793 -0.02749062 C60.87597692 -0.03628066 76.5459591 -0.04091248 92.21595057 -0.04016014 C93.47876451 -0.04010021 93.47876451 -0.04010021 94.76708984 -0.04003906 C95.61001193 -0.03999818 96.45293401 -0.0399573 97.32139919 -0.03991518 C110.97247151 -0.03950899 124.62351622 -0.04907607 138.27458056 -0.06317743 C152.34388133 -0.07759439 166.41316868 -0.08444473 180.48247701 -0.08358365 C188.36026479 -0.08325356 196.23802361 -0.08591784 204.11580467 -0.0967617 C210.82351944 -0.10593702 217.53119209 -0.10798493 224.23891046 -0.10125228 C227.6503256 -0.09802233 231.06159546 -0.09892125 234.47301292 -0.10660553 C271.23939365 -0.18399025 303.41172077 4.51692863 336.07348633 22.14526367 C336.68562988 22.47139648 337.29777344 22.7975293 337.9284668 23.13354492 C379.18894901 45.25665528 411.26767905 85.60706592 425.03710938 130.23852539 C429.94484273 146.90089147 433.23102797 163.67856998 433.21392822 181.09040833 C433.21838491 182.53247895 433.21838491 182.53247895 433.22293162 184.00368232 C433.23155803 187.20428679 433.23312173 190.4048536 433.23461914 193.60546875 C433.23925175 195.90929239 433.244277 198.21311526 433.24966431 200.51693726 C433.26275095 206.76341546 433.26922641 213.00988293 433.27367496 219.25637269 C433.2766128 223.16675792 433.28071902 227.07714026 433.28517914 230.98752403 C433.29728269 241.84204531 433.30766553 252.6965634 433.31105423 263.55109119 C433.3112738 264.24456773 433.31149336 264.93804427 433.31171958 265.65253524 C433.31193786 266.34755583 433.31215614 267.04257641 433.31238103 267.75865823 C433.31282447 269.16674221 433.31327104 270.57482618 433.3137207 271.98291016 C433.31394213 272.68135013 433.31416356 273.37979011 433.3143917 274.09939494 C433.31833155 285.39206292 433.33576304 296.68466605 433.35908023 307.97730903 C433.38289835 319.60778182 433.39500385 331.23821902 433.39642215 342.86871642 C433.39746534 349.38395445 433.40326875 355.89910098 433.42124176 362.41431618 C433.43784723 368.55312839 433.43981799 374.69178156 433.43110275 380.83060837 C433.43033891 383.06851188 433.43458754 385.30642438 433.444561 387.5443058 C433.51808067 405.08720667 432.24186906 422.20313803 427.38598633 439.14526367 C427.13034912 440.05131348 426.87471191 440.95736328 426.61132812 441.89086914 C412.4302527 490.52498354 379.40697392 530.60957834 335.21923828 555.04663086 C304.98617674 571.27691397 272.63420159 576.36008901 238.69970703 576.19189453 C236.53688222 576.18509568 234.37405549 576.17888592 232.21122742 576.17321777 C227.56947879 576.16080957 222.92774364 576.14622412 218.28600502 576.13053703 C210.93384302 576.10771402 203.58173185 576.10213731 196.22953796 576.10121155 C194.98563445 576.10102978 193.74173093 576.10084802 192.46013337 576.10066074 C187.33387825 576.10021122 182.20762322 576.10029287 177.08136809 576.10049617 C162.56235816 576.10023156 148.04377966 576.08346902 133.52490234 576.01855469 C121.96872946 575.96700439 110.41311374 575.95096562 98.8568446 575.9760161 C92.75159446 575.98791909 86.64753505 575.98223975 80.54244423 575.93333244 C74.79538216 575.88767571 69.05021019 575.88938235 63.30310249 575.9260788 C61.20539722 575.93131069 59.10756524 575.91975291 57.01007462 575.88929176 C43.44402332 575.70452286 34.49079601 577.56721862 23.63039052 585.94651234 C21.47926326 587.60279066 19.23134065 589.10637895 16.97973633 590.62182617 C15.50853281 591.66786312 14.03978461 592.71736177 12.57348633 593.77026367 C5.21935142 598.98439794 -2.22148401 604.0447941 -9.73901367 609.02026367 C-17.85673939 614.39488844 -25.89092183 619.87088152 -33.86401367 625.45776367 C-73.0316785 652.84525541 -73.0316785 652.84525541 -93.92651367 651.14526367 C-101.55744184 649.55825869 -107.96622742 646.23190313 -112.92651367 640.14526367 C-117.88758553 631.97790956 -120.10038953 625.39050628 -119.92553711 615.8515625 C-119.9027851 614.36783109 -119.88057294 612.88409133 -119.85882568 611.40034485 C-119.83965214 610.22829719 -119.83965214 610.22829719 -119.82009125 609.03257179 C-119.74918321 603.99417476 -119.74331142 598.95518663 -119.72623825 593.91637135 C-119.70759925 589.49924556 -119.66571276 585.08470381 -119.57348633 580.66845703 C-119.48526763 576.3823106 -119.46136507 572.09995818 -119.47986603 567.812994 C-119.47558917 566.18824642 -119.44854072 564.56338006 -119.39739227 562.93943214 C-118.94695336 554.26489485 -118.94695336 554.26489485 -122.1905365 546.50283432 C-125.70796186 543.08061795 -129.73415887 540.65411809 -133.92651367 538.14526367 C-135.63469307 536.8597927 -137.32700155 535.55239306 -138.98901367 534.20776367 C-139.78436523 533.56581055 -140.5797168 532.92385742 -141.39916992 532.26245117 C-177.92545277 501.66392675 -202.11113627 458.02820777 -206.5133667 410.29879761 C-208.23157942 388.89365048 -208.22291166 367.51256014 -208.19516468 346.05147409 C-208.19000436 340.78902406 -208.19482348 335.52658004 -208.19793701 330.26412964 C-208.20154871 321.43429286 -208.19685257 312.60448983 -208.18725586 303.7746582 C-208.17638358 293.65619514 -208.17989945 283.5378128 -208.19090867 273.4193517 C-208.20007036 264.63788112 -208.20122382 255.85643442 -208.19603133 247.07496059 C-208.19295894 241.8714643 -208.19236802 236.66800555 -208.19910431 231.46451187 C-208.21980702 212.85430601 -208.23692909 194.26681283 -207.04663086 175.68774414 C-206.97075871 174.4892943 -206.89488655 173.29084446 -206.81671524 172.05607796 C-203.69624021 129.21707493 -185.70044569 89.05344071 -155.92651367 58.14526367 C-155.41894531 57.61191406 -154.91137695 57.07856445 -154.38842773 56.52905273 C-112.35267669 12.53016096 -59.15449594 -0.01272704 0 0 Z M-115.78979492 97.02416992 C-117.52841946 99.04397363 -119.23515566 101.08562609 -120.92651367 103.14526367 C-121.68963867 104.04760742 -122.45276367 104.94995117 -123.23901367 105.87963867 C-141.74189623 128.66131282 -151.09724414 157.408474 -151.06695557 186.64157104 C-151.06992669 187.5546544 -151.07289781 188.46773775 -151.07595897 189.4084903 C-151.08457924 192.44559483 -151.08614854 195.48265963 -151.08764648 198.51977539 C-151.09227951 200.70699649 -151.09730482 202.89421679 -151.10269165 205.08143616 C-151.1157738 211.00967553 -151.1222528 216.9379036 -151.12670231 222.86615515 C-151.12964071 226.57753111 -151.13374702 230.28890404 -151.13820648 234.00027847 C-151.15265659 246.30180167 -151.16199068 258.60331645 -151.16607299 270.90484737 C-151.16629576 271.566841 -151.16651853 272.22883463 -151.16674805 272.91088867 C-151.16696948 273.57370358 -151.16719091 274.2365185 -151.16741905 274.91941871 C-151.17111461 284.97161646 -151.1859129 295.02375397 -151.20776367 305.07592773 C-151.23312223 316.78102491 -151.24794566 328.48607473 -151.24944949 340.19120038 C-151.25049264 346.37497284 -151.25629513 352.5586489 -151.2742691 358.74239731 C-151.29087454 364.56849339 -151.29284537 370.3944219 -151.2841301 376.22053337 C-151.28336626 378.34436559 -151.28761471 380.46820728 -151.29758835 382.59201622 C-151.46731432 421.02608401 -140.5146363 451.32910096 -114.92651367 480.14526367 C-114.35674805 480.80010742 -113.78698242 481.45495117 -113.19995117 482.12963867 C-104.27365417 491.7425739 -92.25813329 498.82056744 -81.00537109 505.35327148 C-74.04137529 509.45478508 -69.54329065 513.91170972 -65.92651367 521.14526367 C-65.07598861 524.56196175 -64.78346396 527.78878298 -64.72119141 531.30273438 C-64.69127357 532.80372429 -64.69127357 532.80372429 -64.66075134 534.33503723 C-64.64403885 535.40291977 -64.62732635 536.47080231 -64.61010742 537.57104492 C-64.57893578 539.22513618 -64.57893578 539.22513618 -64.5471344 540.91264343 C-64.48186435 544.42762145 -64.42285872 547.9426728 -64.36401367 551.45776367 C-64.32080702 553.8438389 -64.27719204 556.22990677 -64.2331543 558.6159668 C-64.12620607 564.45898873 -64.02439812 570.30208325 -63.92651367 576.14526367 C-60.28460266 575.0309116 -57.22610755 573.92968754 -54.14916992 571.67651367 C-53.47893799 571.19311523 -52.80870605 570.7097168 -52.11816406 570.21166992 C-51.41554443 569.69475586 -50.7129248 569.1778418 -49.98901367 568.64526367 C-48.46931484 567.5499379 -46.94846063 566.45621354 -45.42651367 565.36401367 C-44.28956055 564.54610352 -44.28956055 564.54610352 -43.12963867 563.71166992 C-39.95885585 561.45726582 -36.73384491 559.29120918 -33.48901367 557.14526367 C-32.58844238 556.5489917 -32.58844238 556.5489917 -31.66967773 555.94067383 C-30.42169664 555.11537479 -29.17331593 554.29067974 -27.92456055 553.46655273 C-24.18843787 550.99589097 -20.46480914 548.50645885 -16.73901367 546.02026367 C-15.20781314 544.99935614 -13.67656438 543.97852094 -12.14526367 542.95776367 C-11.42209961 542.4756543 -10.69893555 541.99354492 -9.95385742 541.49682617 C-1.73901367 536.02026367 -1.73901367 536.02026367 1.05786133 534.16088867 C3.36647745 532.61782401 5.6671883 531.06493915 7.96411133 529.50463867 C8.63547119 529.0510498 9.30683105 528.59746094 9.99853516 528.13012695 C11.30563754 527.24688538 12.61031413 526.3600393 13.91210938 525.46899414 C22.17193326 519.903147 29.44776087 518.98903133 39.17779541 519.03846741 C40.0849375 519.03902411 40.9920796 519.03958082 41.92671084 519.0401544 C44.96166597 519.04318646 47.99655497 519.05336771 51.03149414 519.06347656 C53.21004162 519.06703366 55.3885899 519.07011938 57.56713867 519.07276917 C62.25862845 519.07931887 66.95009917 519.08887817 71.64157867 519.10066414 C79.07369063 519.11898119 86.50579797 519.12856361 93.93792725 519.13658142 C104.37211544 519.14849388 114.80629766 519.16246704 125.24047852 519.1796875 C125.90226163 519.18077762 126.56404474 519.18186774 127.24588189 519.1829909 C137.27794116 519.19966772 147.30999052 519.21996966 157.34204102 519.24121094 C169.01486815 519.265849 180.68768409 519.2831581 192.36053348 519.29277033 C199.73331404 519.29927663 207.10600195 519.31476005 214.47875071 519.33708775 C219.09029812 519.34891031 223.70182375 519.35219054 228.31338501 519.35318565 C230.43441154 519.3553134 232.55543815 519.36083573 234.67644501 519.37021637 C250.34024233 519.43674508 266.31173619 519.28230662 281.51098633 515.02026367 C282.28337646 514.80853516 283.0557666 514.59680664 283.8515625 514.37866211 C302.89004409 508.90997797 318.99739828 499.93163869 334.07348633 487.14526367 C334.80825195 486.55616211 335.54301758 485.96706055 336.30004883 485.36010742 C359.40745017 466.13115683 373.74078063 434.55486564 377.07348633 405.14526367 C377.59172618 397.49036152 377.49517891 389.81226728 377.47753906 382.14404297 C377.48325425 379.87844509 377.49022291 377.61285008 377.49833679 375.34725952 C377.51615724 369.24170403 377.51512075 363.13629312 377.50939441 357.03071952 C377.5062861 351.91196515 377.51241322 346.7932379 377.51843315 341.67448741 C377.53323887 328.89847679 377.52969594 316.12256677 377.51756985 303.34656016 C377.50764446 292.30009423 377.5205752 281.25379597 377.54450404 270.20735588 C377.56899977 258.81165074 377.5780794 247.41605292 377.57185131 236.02031642 C377.56849889 229.64379338 377.57078183 223.26740875 377.58810234 216.89090538 C377.60369426 210.88981587 377.59948139 204.88904369 377.5807972 198.88796616 C377.57714485 196.70166263 377.58012014 194.51533494 377.59068298 192.32905388 C377.72121853 163.04670286 370.9216611 136.26505504 354.01098633 112.08276367 C353.52879639 111.39263184 353.04660645 110.7025 352.54980469 109.99145508 C349.12566721 105.25016413 345.28961315 101.18654953 341.07348633 97.14526367 C340.31036133 96.36151367 339.54723633 95.57776367 338.76098633 94.77026367 C321.11038969 77.53014603 301.07883333 66.15637583 277.07348633 60.14526367 C276.1823775 59.89776336 275.29126867 59.65026304 274.37315655 59.39526272 C261.5881517 56.30625035 248.68319587 56.70897786 235.60095799 56.73843062 C232.02000566 56.74320612 228.43910479 56.73061399 224.85816956 56.72041321 C217.86104658 56.70330339 210.86401371 56.70236905 203.86687527 56.70762611 C198.17231566 56.7116846 192.47778247 56.71020444 186.78322411 56.70487785 C185.56267393 56.70375522 185.56267393 56.70375522 184.31746617 56.70260991 C182.6638518 56.70107826 181.01023743 56.69953991 179.35662308 56.69799494 C163.88266309 56.68429755 148.40875379 56.68968756 132.93479498 56.70118015 C118.81984911 56.71110414 104.70503448 56.69818138 90.59010885 56.67424596 C76.05304428 56.6497829 61.51604064 56.64026506 46.97895592 56.64689869 C38.83513236 56.65037566 30.69140956 56.64826055 22.5476017 56.63064766 C15.61319546 56.61583491 8.67896091 56.61540713 1.74455772 56.63271857 C-1.784121 56.64115814 -5.31249424 56.64355428 -8.84115601 56.62806702 C-49.44857879 56.48713931 -86.52343238 67.51238715 -115.78979492 97.02416992 Z " fill="#FCFCFB" transform="translate(386.926513671875,-0.145263671875)"/>
<path d="M0 0 C0.73573242 -0.00004028 1.47146484 -0.00008057 2.22949219 -0.00012207 C3.77938415 0.00522068 5.32927655 0.0227506 6.87890625 0.05175781 C9.24303515 0.09362665 11.60431261 0.0928223 13.96875 0.0859375 C15.47918634 0.09643109 16.98960808 0.10937012 18.5 0.125 C19.2022168 0.12520142 19.90443359 0.12540283 20.62792969 0.12561035 C24.98828904 0.23007068 27.81817637 0.86264694 31.25 3.59375 C32.54418945 5.38647461 32.54418945 5.38647461 33.55078125 7.55859375 C34.17267334 8.89833252 34.17267334 8.89833252 34.80712891 10.26513672 C37.70232634 16.94417593 40.51396442 23.65578924 43.29205322 30.38430786 C49.97396923 46.55431673 56.82027406 62.64542206 63.875 78.65625 C64.23991547 79.48472443 64.60483093 80.31319885 64.98080444 81.16677856 C67.05026047 85.86157036 69.12739701 90.55290638 71.20861816 95.24249268 C72.31444554 97.73925672 73.41483983 100.23837233 74.51464844 102.73779297 C75.24670377 104.396828 75.97879879 106.05584551 76.7109375 107.71484375 C77.05186432 108.49207291 77.39279114 109.26930206 77.74404907 110.07008362 C79.10647173 113.57939166 79.10647173 113.57939166 81.25 116.59375 C87.91212971 103.04809051 93.70100871 89.14688929 99.49197388 75.21401978 C101.74434899 69.79794598 104.01461659 64.38956863 106.29296875 58.984375 C106.63427322 58.17449127 106.9755777 57.36460754 107.32722473 56.53018188 C109.04725037 52.45008576 110.76934933 48.37087388 112.4934082 44.29248047 C115.47991645 37.22093466 118.44767522 30.14528467 121.3125 23.0234375 C121.98889526 21.35365845 121.98889526 21.35365845 122.67895508 19.65014648 C123.48654192 17.64880374 124.28416127 15.64339327 125.0690918 13.63305664 C127.35711818 7.98179366 129.5596403 3.43892985 135.25 0.59375 C140.04806965 0.31064633 144.84695468 0.28005493 149.65258789 0.24365234 C151.25397283 0.22710475 152.85528427 0.19982991 154.45629883 0.16162109 C156.76943116 0.10672269 159.08083436 0.08496082 161.39453125 0.0703125 C162.10615921 0.04764313 162.81778717 0.02497375 163.55097961 0.00161743 C167.08527054 0.01656515 169.03572871 0.44221692 171.93734741 2.49424744 C175.22116501 6.89534128 174.95743018 10.4087182 174.90942383 15.76928711 C174.91990753 16.79518448 174.93039124 17.82108185 174.94119263 18.87806702 C174.9701039 22.29271213 174.96361087 25.70634682 174.95703125 29.12109375 C174.97018641 31.54050419 174.9855021 33.95990374 175.00285339 36.37928772 C175.04287924 42.79810212 175.05289197 49.21663471 175.05688477 55.63555908 C175.06598146 61.94658868 175.10351896 68.25743085 175.13867188 74.56835938 C175.19736194 85.80659561 175.22019224 97.04455802 175.22754097 108.28293419 C175.23568728 115.9766766 175.27370936 123.66963806 175.33485508 131.36313915 C175.37359411 136.40624151 175.40091392 141.44937187 175.42661095 146.49255562 C175.44157694 148.87907272 175.46171636 151.26556349 175.48725319 153.65199089 C175.52169822 156.93547487 175.53776496 160.2185654 175.54956055 163.50219727 C175.56444456 164.47189768 175.57932858 165.44159809 175.59466362 166.44068336 C175.59411319 167.77474504 175.59411319 167.77474504 175.59355164 169.13575745 C175.59964793 169.9050184 175.60574423 170.67427935 175.61202526 171.46685123 C175.14470949 174.21233183 174.13843113 175.57173961 172.25 177.59375 C167.82769405 179.06785198 163.50771583 178.81870829 158.875 178.84375 C157.45574219 178.8746875 157.45574219 178.8746875 156.0078125 178.90625 C146.79800155 178.95799051 146.79800155 178.95799051 143.25 175.59375 C140.70790788 170.015444 140.94357689 164.45480644 140.93115234 158.44775391 C140.91608391 156.7785791 140.91608391 156.7785791 140.90071106 155.07568359 C140.86988546 151.40723169 140.85284537 147.73885275 140.8359375 144.0703125 C140.81722539 141.52297335 140.79765194 138.9756404 140.7772522 136.42831421 C140.73117194 130.41490715 140.69376209 124.40150693 140.66057932 118.38801992 C140.62230077 111.53910191 140.57290573 104.69027803 140.52259517 97.84143949 C140.41939535 83.75894622 140.33009627 69.67639227 140.25 55.59375 C127.09683254 86.24107683 127.09683254 86.24107683 114.01342773 116.91821289 C113.01989413 119.25652421 112.02459479 121.59407981 111.02929688 123.93164062 C110.3592638 125.50776523 109.6893401 127.08393634 109.01953125 128.66015625 C108.70315704 129.40302887 108.38678284 130.14590149 108.06082153 130.9112854 C106.4401318 134.7307657 104.85386955 138.56075304 103.31396484 142.41357422 C103.00037521 143.19337143 102.68678558 143.97316864 102.36369324 144.77659607 C101.77062482 146.2565507 101.18389018 147.73906538 100.60469055 149.22450256 C98.07820166 155.51843577 98.07820166 155.51843577 95.25 157.59375 C90.70439291 159.10895236 86.19967994 158.86007502 81.4375 158.90625 C80.45201172 158.93525391 79.46652344 158.96425781 78.45117188 158.99414062 C74.06820665 159.03240694 70.89200894 158.86680511 66.82421875 157.13671875 C63.32212625 153.67714027 61.75029679 150.10008489 59.875 145.59375 C59.00288188 143.58842086 58.13046468 141.58322179 57.2578125 139.578125 C56.78118164 138.46630859 56.30455078 137.35449219 55.81347656 136.20898438 C54.13475773 132.32727475 52.41350011 128.46668466 50.6796875 124.609375 C40.256969 101.39064851 30.22067949 78.00952872 20.25 54.59375 C20.25222061 55.21219788 20.25444122 55.83064575 20.25672913 56.46783447 C20.35636868 85.70098123 20.36607965 114.93578453 19.98654175 144.16711426 C19.95385397 146.82599179 19.92628423 149.48493718 19.90383911 152.1439209 C19.87094493 155.85802028 19.81902991 159.57136418 19.76171875 163.28515625 C19.75212631 164.9450634 19.75212631 164.9450634 19.74234009 166.63850403 C19.72255096 167.64797592 19.70276184 168.65744781 19.68237305 169.69750977 C19.67126999 170.5757692 19.66016693 171.45402863 19.64872742 172.35890198 C19.16744552 175.0564639 18.40180377 175.94666122 16.25 177.59375 C8.15782372 179.60527769 -4.21353555 180.36198222 -11.75 176.59375 C-14.18459684 172.94185474 -13.99582968 171.24001278 -13.9861908 166.88870239 C-13.98734392 166.20363015 -13.98849705 165.51855791 -13.98968512 164.8127259 C-13.99097872 162.51191419 -13.97779381 160.21141549 -13.96459961 157.91064453 C-13.96235895 156.26316414 -13.9609342 154.61568246 -13.96026611 152.96820068 C-13.95545279 148.48877892 -13.93733828 144.00950643 -13.91551661 139.53013849 C-13.90237168 136.73250743 -13.89186653 133.93487906 -13.88226509 131.13723373 C-13.84846097 121.37966472 -13.80317851 111.62221837 -13.74829102 101.86474609 C-13.69743683 92.76537683 -13.67278659 83.66618662 -13.66010088 74.56669152 C-13.64796676 66.75758339 -13.61674091 58.9487 -13.5708161 51.13971794 C-13.54374951 46.47428325 -13.52461653 41.80913967 -13.52497673 37.14361954 C-13.52471597 32.75537232 -13.50074687 28.3678887 -13.45852661 23.97985077 C-13.44708561 22.36942944 -13.44414161 20.75892195 -13.45031929 19.14847183 C-13.45743903 16.94902666 -13.43390552 14.75195222 -13.4026947 12.55276489 C-13.39733169 11.32238054 -13.39196867 10.09199619 -13.38644314 8.82432747 C-11.92179407 1.38978697 -6.8285453 -0.15943196 0 0 Z " fill="#FCFBFB" transform="translate(450.75,712.40625)"/>
<path d="M0 0 C0.91644287 0.00902344 1.83288574 0.01804687 2.77709961 0.02734375 C16.0469814 0.36420809 25.02630757 4.73677092 35.6875 12.4375 C36.6775 12.9325 36.6775 12.9325 37.6875 13.4375 C37.914375 12.179375 38.14125 10.92125 38.375 9.625 C38.8970217 6.73015241 39.42401253 5.67159444 41.6484375 3.6953125 C46.0011746 1.89379406 49.96272723 2.04010792 54.625 2.125 C55.50607422 2.12177734 56.38714844 2.11855469 57.29492188 2.11523438 C62.09117444 2.15475406 66.26550598 2.36836665 70.6875 4.4375 C72.84950594 7.68050892 72.93822914 8.55583014 72.94146729 12.29768372 C72.94992676 13.80069031 72.94992676 13.80069031 72.95855713 15.33406067 C72.95248444 16.98204903 72.95248444 16.98204903 72.94628906 18.66333008 C72.95154602 20.40052811 72.95154602 20.40052811 72.95690918 22.17282104 C72.9657398 26.01761808 72.95986833 29.86223219 72.953125 33.70703125 C72.95447227 36.38205697 72.95641057 39.05707712 72.95892334 41.73210144 C72.96256554 47.35193869 72.95776305 52.97172346 72.94824219 58.59155273 C72.93741533 65.05621181 72.94083986 71.52074415 72.951895 77.98540002 C72.96103061 83.5533724 72.96222103 89.12130703 72.95701766 94.6892845 C72.95392464 98.00630345 72.95421631 101.32325118 72.96009064 104.64026833 C73.02216463 149.5901232 73.02216463 149.5901232 59.6875 166.4375 C59.07261719 167.25992188 58.45773437 168.08234375 57.82421875 168.9296875 C48.91516672 179.38601547 34.32002301 186.35864019 20.72012329 187.6199646 C16.34645603 187.87702558 11.97782003 187.90843222 7.59765625 187.88354492 C5.3219941 187.8750355 3.04885366 187.90390299 0.7734375 187.93554688 C-17.82894252 188.02592679 -33.4588168 182.37593936 -47.2890625 169.6484375 C-49.43519808 167.30343221 -51.04365863 165.36213437 -52.3125 162.4375 C-51.41474638 157.59743701 -47.88072773 154.52326037 -44.5 151.1875 C-43.71786133 150.37539063 -43.71786133 150.37539063 -42.91992188 149.546875 C-40.6448766 147.27466998 -38.69492412 145.58559005 -35.6796875 144.41796875 C-32.69170047 144.44262211 -31.60487386 145.18960564 -29.25 147 C-15.70062689 156.68780178 -2.84899845 160.46882827 13.78515625 157.97265625 C22.46648611 155.90916153 29.6329098 151.77539534 34.71484375 144.34375 C37.24379155 139.38741857 37.99557549 134.70433409 38.3125 129.1875 C38.38726562 127.96546875 38.46203125 126.7434375 38.5390625 125.484375 C38.62095861 123.80334958 38.6875 122.12051914 38.6875 120.4375 C36.18705306 121.66233822 33.73854419 122.95124504 31.2890625 124.27734375 C14.77721172 133.07698512 -0.0673126 135.72479909 -18.3125 130.4375 C-32.51495835 125.05333596 -44.39994142 113.9193831 -51.0625 100.25 C-51.84831633 98.32674782 -52.59697856 96.38799617 -53.3125 94.4375 C-53.70566406 93.40882813 -54.09882813 92.38015625 -54.50390625 91.3203125 C-60.81919018 71.91236675 -59.19851797 48.77283955 -50.125 30.5625 C-46.58820641 24.45073892 -42.33446023 19.37860577 -37.3125 14.4375 C-36.72597656 13.85226562 -36.13945312 13.26703125 -35.53515625 12.6640625 C-25.88049528 3.71362386 -12.94044193 -0.15395265 0 0 Z M-15.3125 39.4375 C-23.32984976 50.42281097 -24.16511998 61.20856814 -23.3125 74.4375 C-21.67970994 84.14494718 -16.98225569 91.75147617 -9.41015625 97.96484375 C-2.09603386 103.0997118 6.97550569 104.21320602 15.6875 102.875 C23.92423123 100.91942387 30.41733954 96.63864235 35.43359375 89.85546875 C39.12927607 82.72890378 40.21524164 76.03360249 40.125 68.0625 C40.11887695 67.14073975 40.11275391 66.21897949 40.10644531 65.26928711 C39.94850472 58.3885446 38.99667245 52.56176708 35.6875 46.4375 C35.11 45.365 34.5325 44.2925 33.9375 43.1875 C28.24549158 36.23060083 22.08082016 31.04775335 12.85546875 30.00390625 C1.85159345 29.99310755 -7.33902321 31.10159245 -15.3125 39.4375 Z " fill="#FDFCFC" transform="translate(334.3125,756.5625)"/>
<path d="M0 0 C0.88182953 -0.00426498 1.76365906 -0.00852997 2.67221069 -0.01292419 C4.119347 -0.01224442 4.119347 -0.01224442 5.59571838 -0.0115509 C7.12292511 -0.01658882 7.12292511 -0.01658882 8.6809845 -0.02172852 C12.05434888 -0.03124547 15.42766367 -0.03318195 18.80104065 -0.03425598 C21.1412966 -0.03746783 23.48155234 -0.04083185 25.82180786 -0.04434204 C30.73033616 -0.05033503 35.63884684 -0.05218174 40.54737854 -0.05158997 C46.84361811 -0.05148829 53.13974505 -0.06514586 59.43595791 -0.08236217 C64.27002483 -0.09346835 69.1040644 -0.09550961 73.93814278 -0.09498024 C76.25981599 -0.09616224 78.58148987 -0.10059627 80.90315056 -0.10831261 C84.14710814 -0.11808534 87.39081952 -0.11524522 90.63478088 -0.10920715 C91.59751419 -0.11482666 92.5602475 -0.12044617 93.55215454 -0.12623596 C94.87912857 -0.11994423 94.87912857 -0.11994423 96.23291016 -0.11352539 C96.99963264 -0.11407016 97.76635511 -0.11461493 98.55631161 -0.1151762 C100.99599667 0.17075364 102.59032336 0.85792837 104.6799469 2.13371277 C106.66552041 5.06726794 106.93611019 7.48203643 106.9455719 10.97746277 C106.94943909 12.35224792 106.94943909 12.35224792 106.9533844 13.75480652 C106.94565002 14.70484558 106.93791565 15.65488464 106.9299469 16.63371277 C106.94154846 18.05877136 106.94154846 18.05877136 106.9533844 19.51261902 C106.95080627 20.42914246 106.94822815 21.34566589 106.9455719 22.28996277 C106.94331604 23.12334167 106.94106018 23.95672058 106.93873596 24.81535339 C106.65452145 27.3614864 106.04109391 28.97266703 104.6799469 31.13371277 C102.02624717 32.46056263 99.97143974 32.29511136 96.99952698 32.33903503 C95.80680679 32.35898026 94.61408661 32.37892548 93.38522339 32.3994751 C91.4370295 32.42454384 91.4370295 32.42454384 89.44947815 32.45011902 C88.09820975 32.47072115 86.74694733 32.49171841 85.39569092 32.51309204 C82.55175638 32.55710936 79.70780066 32.59799904 76.86378479 32.63639832 C73.26234946 32.6850297 69.66101385 32.7386529 66.05968189 32.79437351 C62.58547179 32.8479601 59.11122842 32.89921275 55.63697815 32.95011902 C54.36449722 32.96885574 53.0920163 32.98759247 51.78097534 33.00689697 C43.07811591 33.12536001 34.38546249 33.13371277 25.6799469 33.13371277 C25.3499469 46.00371277 25.0199469 58.87371277 24.6799469 72.13371277 C29.39791565 72.09890808 34.1158844 72.06410339 38.9768219 72.02824402 C41.96641762 72.01291471 44.95596485 71.99847286 47.9455719 71.98722839 C52.69046598 71.9692974 57.43518633 71.94808892 62.1799469 71.90739441 C66.00545912 71.8747895 69.83078502 71.85685742 73.65642548 71.84908104 C75.11567874 71.84353952 76.57492185 71.83271821 78.03409576 71.8165226 C80.0787049 71.79473244 82.12254495 71.79174638 84.16725159 71.7931366 C85.33085205 71.78647476 86.49445251 71.77981293 87.6933136 71.77294922 C90.98423254 72.17046826 92.36753878 72.79158436 94.6799469 75.13371277 C95.19752502 77.81340027 95.19752502 77.81340027 95.2111969 81.00871277 C95.21893127 82.73347839 95.21893127 82.73347839 95.2268219 84.49308777 C95.21135315 85.69449402 95.1958844 86.89590027 95.1799469 88.13371277 C95.20315002 89.93582214 95.20315002 89.93582214 95.2268219 91.77433777 C95.22166565 92.92418152 95.2165094 94.07402527 95.2111969 95.25871277 C95.20668518 96.31316589 95.20217346 97.36761902 95.19752502 98.45402527 C94.6799469 101.13371277 94.6799469 101.13371277 93.05464172 102.77990723 C89.93309926 104.5594881 87.75343058 104.4948205 84.16725159 104.47428894 C83.52293182 104.47472702 82.87861206 104.4751651 82.21476746 104.47561646 C80.09347308 104.47353301 77.97297751 104.45022458 75.8518219 104.42668152 C74.37780692 104.42108394 72.90378635 104.41681461 71.42976379 104.41381836 C67.55641684 104.40238218 63.68340914 104.37292591 59.81019592 104.33970642 C55.15963247 104.30357327 50.50895537 104.2898385 45.85829163 104.2723465 C38.79860767 104.24328743 31.73966762 104.18579268 24.6799469 104.13371277 C24.6799469 117.99371277 24.6799469 131.85371277 24.6799469 146.13371277 C29.62865784 146.11050964 34.57736877 146.08730652 39.67604065 146.06340027 C42.82513449 146.05317222 45.97420763 146.04354364 49.12330627 146.03605652 C54.11350294 146.02413556 59.10362569 146.01008561 64.09376526 145.98283386 C68.12028879 145.96098401 72.14673296 145.94911872 76.17331123 145.94395828 C77.70377411 145.9402842 79.23423301 145.93311006 80.76466179 145.92225266 C96.15947463 145.81745406 96.15947463 145.81745406 103.6799469 148.13371277 C106.32694306 150.78070893 105.93744457 152.03765686 105.9455719 155.72746277 C105.94943909 157.39615417 105.94943909 157.39615417 105.9533844 159.09855652 C105.94565002 160.26515808 105.93791565 161.43175964 105.9299469 162.63371277 C105.94154846 164.38361511 105.94154846 164.38361511 105.9533844 166.16886902 C105.95080627 167.28132996 105.94822815 168.39379089 105.9455719 169.53996277 C105.94331604 170.56412292 105.94106018 171.58828308 105.93873596 172.64347839 C105.6799469 175.13371277 105.6799469 175.13371277 103.6799469 177.13371277 C100.5234679 177.45934054 97.45645822 177.64146464 94.2893219 177.73918152 C93.25394287 177.77609604 92.21856384 177.81301056 91.15180969 177.8510437 C74.69897698 178.36712977 58.23266903 178.39516877 41.77320862 178.42887878 C36.85289464 178.44012439 31.93301067 178.47482693 27.01285172 178.51405048 C23.19535967 178.54010293 19.37797505 178.54855833 15.56040192 178.55216026 C13.74388833 178.55702256 11.92737943 178.56862638 10.11095428 178.58719826 C7.59224097 178.61144086 5.07471666 178.61065763 2.55592346 178.60368347 C1.44183357 178.62289856 1.44183357 178.62289856 0.30523682 178.64250183 C-2.88990861 178.61016083 -4.89655682 178.44268527 -7.51080132 176.53539658 C-9.94891441 173.29893343 -9.81805536 171.2514915 -9.81452942 167.21902466 C-9.81935825 166.52351976 -9.82418708 165.82801485 -9.82916224 165.11143404 C-9.84043316 162.78115707 -9.82311547 160.45197755 -9.80589294 158.12174988 C-9.80803881 156.45116885 -9.8119165 154.78058928 -9.81739807 153.11001587 C-9.82709704 148.57285904 -9.81178186 144.0360953 -9.79149199 139.49898601 C-9.77393555 134.75447579 -9.77744577 130.00997797 -9.7782135 125.26544189 C-9.7763401 117.29853225 -9.75897001 109.33177491 -9.73167419 101.36491394 C-9.7002122 92.14787906 -9.68967835 82.93101095 -9.6911453 73.71392626 C-9.69236511 64.8537711 -9.68216184 55.99367038 -9.66556168 47.13353157 C-9.65849231 43.35966632 -9.65483465 39.58582033 -9.65377426 35.81194878 C-9.65176824 31.37060611 -9.63958201 26.92940399 -9.61944199 22.48810768 C-9.61359032 20.85585261 -9.61114159 19.22358137 -9.61229706 17.59131622 C-9.61327558 15.36786615 -9.60199629 13.14481222 -9.58747864 10.92141724 C-9.58412695 9.67573943 -9.58077526 8.43006163 -9.57732201 7.14663601 C-9.3200531 4.13371277 -9.3200531 4.13371277 -7.3200531 1.13371277 C-4.53788609 0.20632376 -2.8720124 0.00628052 0 0 Z " fill="#FDFCFC" transform="translate(10.320053100585938,712.8662872314453)"/>
<path d="M0 0 C11.16007636 11.16007636 14.73411442 24.21066223 14.86083984 39.67724609 C14.85826165 41.91765712 14.84963409 44.15806685 14.8359375 46.3984375 C14.83193939 47.61389252 14.82794128 48.82934753 14.82382202 50.08163452 C14.76949931 62.89944057 14.633412 75.7164101 14.43261719 88.53271484 C14.3935086 91.14072712 14.35882763 93.74880881 14.328125 96.35693359 C14.28285147 100.1886774 14.22497686 104.02003945 14.1640625 107.8515625 C14.15251129 109.0220816 14.14096008 110.19260071 14.12905884 111.39859009 C14.10918915 112.46926727 14.08931946 113.53994446 14.06884766 114.64306641 C14.05552399 115.58453522 14.04220032 116.52600403 14.0284729 117.4960022 C13.75 119.75 13.75 119.75 11.75 121.75 C7.47750137 122.23671964 3.17204427 122.12040423 -1.125 122.125 C-2.32253906 122.14949219 -3.52007813 122.17398438 -4.75390625 122.19921875 C-5.90503906 122.20308594 -7.05617188 122.20695313 -8.2421875 122.2109375 C-9.29776855 122.21915527 -10.35334961 122.22737305 -11.44091797 122.23583984 C-14.96130301 121.62697784 -16.11354324 120.56927409 -18.25 117.75 C-19 114 -19 114 -19.25 110.75 C-19.68828125 111.11351562 -20.1265625 111.47703125 -20.578125 111.8515625 C-33.79719041 122.33008996 -48.40873895 127.12323986 -65.25 125.75 C-76.6954383 124.05647029 -88.14895339 119.21214461 -95.25 109.75 C-102.10604346 99.38658245 -104.31263369 87.65028164 -102.6875 75.375 C-100.64887501 65.80514893 -95.98072944 56.89646635 -87.9609375 51.09375 C-67.36336532 38.08475705 -41.4986974 41.14268265 -18.25 42.75 C-19.31515874 32.49867471 -19.31515874 32.49867471 -24.25 23.75 C-24.25 23.09 -24.25 22.43 -24.25 21.75 C-25.90984798 21.06653318 -27.57836805 20.40411685 -29.25 19.75 C-30.11753906 19.40453125 -30.98507812 19.0590625 -31.87890625 18.703125 C-40.39991351 16.29394102 -52.40357983 15.99311487 -60.296875 20.34375 C-65.05634301 23.77056697 -69.34153866 27.66705076 -73.30078125 31.98828125 C-75.25 33.75 -75.25 33.75 -78.625 33.9375 C-85.35279423 32.73974876 -94.37776581 28.62223419 -99.25 23.75 C-100.11378056 19.32312461 -98.92181479 16.82654595 -96.5625 13.1875 C-94.05633604 9.68821746 -91.45054282 6.64572922 -88.25 3.75 C-87.69957031 3.20730469 -87.14914062 2.66460938 -86.58203125 2.10546875 C-63.88639204 -19.37349702 -24.37355877 -16.87400223 0 0 Z M-66.25 72.75 C-69.26855489 77.17721383 -70.15752083 81.47822171 -69.25 86.75 C-67.32444187 92.11327772 -64.28207174 95.02429447 -59.25 97.75 C-51.28204282 100.20924604 -42.78436262 99.04409343 -35.25 95.75 C-28.64489692 92.1051402 -23.02851342 87.9499739 -20.25 80.75 C-19.27148448 76.77663394 -18.52460785 72.83642633 -18.25 68.75 C-20.17744214 66.82255786 -23.67699119 67.33625152 -26.3125 67.1875 C-27.0247876 67.1464917 -27.7370752 67.1054834 -28.47094727 67.06323242 C-48.52246171 65.20701446 -48.52246171 65.20701446 -66.25 72.75 Z " fill="#FDFCFB" transform="translate(751.25,768.25)"/>
<path d="M0 0 C12.69648158 13.46596531 17.21655339 30.66184629 17.5 48.75 C17.52231689 49.60722656 17.54463379 50.46445312 17.56762695 51.34765625 C17.564646 52.16234375 17.56166504 52.97703125 17.55859375 53.81640625 C17.56044678 54.53900635 17.5622998 55.26160645 17.56420898 56.00610352 C16.8042745 59.31024688 15.5026358 60.83119234 13.0625 63.1875 C10.09183178 63.69444199 7.68550999 63.87937875 4.71386719 63.84692383 C3.45478043 63.86264938 3.45478043 63.86264938 2.17025757 63.87869263 C-0.60041174 63.90746249 -3.36983296 63.90114901 -6.140625 63.89453125 C-8.06306527 63.90764514 -9.98549174 63.92294841 -11.90789795 63.94035339 C-16.9648361 63.98025246 -22.02141422 63.99039701 -27.07849121 63.99438477 C-32.23993892 64.00370695 -37.40117427 64.04111474 -42.5625 64.07617188 C-52.68749004 64.1407977 -62.81232177 64.17399684 -72.9375 64.1875 C-72.63237448 65.62946432 -72.323052 67.07054097 -72.01196289 68.51123047 C-71.75425865 69.71511917 -71.75425865 69.71511917 -71.49134827 70.94332886 C-69.62317287 78.51310126 -64.5945735 84.35012703 -58.35546875 88.78125 C-49.80835438 93.75210812 -40.43552137 94.514346 -30.9375 92.125 C-24.54460966 90.00748112 -18.41334159 86.15955457 -14.0859375 80.96484375 C-11.9375 79.1875 -11.9375 79.1875 -8.671875 78.703125 C-4.17746758 79.28608161 -1.09023366 80.73194711 2.8125 82.9375 C3.47121094 83.28554688 4.12992188 83.63359375 4.80859375 83.9921875 C8.32149066 85.91608642 11.14381291 87.60006974 13.0625 91.1875 C11.80605654 99.08514462 5.94277937 104.77078735 -0.1875 109.375 C-17.5235881 121.26592754 -37.43761593 125.21064113 -58.21875 121.52734375 C-74.84796804 117.55900763 -89.04481196 108.20561088 -98.4453125 93.8125 C-105.55961014 81.29729578 -108.50520306 68.24445787 -108.375 53.9375 C-108.36670166 52.75454346 -108.35840332 51.57158691 -108.34985352 50.3527832 C-107.9842134 31.33819596 -102.31408541 14.50265244 -88.70703125 0.81640625 C-64.62258246 -22.04513681 -24.70009448 -23.28866051 0 0 Z M-67.53515625 23.20703125 C-70.90897036 27.97172137 -71.96312191 31.34123147 -72.9375 37.1875 C-54.4575 37.1875 -35.9775 37.1875 -16.9375 37.1875 C-15.56779991 31.70869965 -17.21433692 28.96676893 -19.9375 24.1875 C-24.06486291 18.11910337 -28.66678309 13.83158065 -35.9375 12.1875 C-48.92331824 10.77891434 -59.03928541 12.55220971 -67.53515625 23.20703125 Z " fill="#FDFCFB" transform="translate(987.9375,771.8125)"/>
<path d="M0 0 C11.27150562 8.98583251 15.98066398 21.28855378 17.67977715 35.26271439 C18.36771292 42.4858485 18.20505045 49.78697614 18.2109375 57.03515625 C18.21737738 58.91271564 18.2241066 60.79027405 18.23110962 62.66783142 C18.24300196 66.57504611 18.24679793 70.48217282 18.24560547 74.3894043 C18.24540073 79.39638687 18.27289665 84.40281167 18.30714989 89.40966129 C18.32935179 93.27437448 18.33344536 97.1389508 18.33238602 101.00372124 C18.33474462 102.85092561 18.34358278 104.69813361 18.35905075 106.54527473 C18.3786098 109.11791099 18.37291714 111.68930742 18.36083984 114.26196289 C18.37207886 115.02197098 18.38331787 115.78197906 18.39489746 116.5650177 C18.35319114 120.05463012 18.1386632 121.96384463 16.00575256 124.78430176 C13.30718093 126.71974583 11.71281854 126.81501753 8.41015625 126.80859375 C6.83911133 126.80956055 6.83911133 126.80956055 5.23632812 126.81054688 C4.14771484 126.79056641 3.05910156 126.77058594 1.9375 126.75 C0.85275391 126.75708984 -0.23199219 126.76417969 -1.34960938 126.77148438 C-11.74910936 126.68839064 -11.74910936 126.68839064 -16.125 122.3125 C-16.23408723 119.84038266 -16.27922247 117.39517703 -16.28271484 114.92211914 C-16.28779556 114.14799683 -16.29287628 113.37387451 -16.29811096 112.57629395 C-16.30884134 110.88805855 -16.31745097 109.19980869 -16.32423019 107.51155281 C-16.33600254 104.83285706 -16.35545572 102.15432377 -16.37734985 99.47569275 C-16.43898824 91.85681645 -16.49283233 84.23795221 -16.52636719 76.61889648 C-16.54741736 71.96213833 -16.58281455 67.30566877 -16.62712479 62.64907646 C-16.64121654 60.87945412 -16.64999168 59.10978063 -16.65317917 57.34010506 C-16.31309741 42.06301897 -16.31309741 42.06301897 -22.3125 28.4375 C-30.25984711 22.43283774 -37.05241633 20.94920847 -47.125 22.3125 C-50.04029568 23.38989188 -52.56866108 24.62991389 -55.234375 26.21875 C-57.125 27.3125 -57.125 27.3125 -59.125 27.3125 C-59.4119574 27.88860016 -59.69891479 28.46470032 -59.99456787 29.05825806 C-60.69727396 30.45955362 -61.4202781 31.85108829 -62.17388916 33.22567749 C-66.32756347 41.8477206 -65.72996789 50.87672872 -65.734375 60.2265625 C-65.74937644 62.05074518 -65.76610767 63.87491437 -65.78448486 65.69906616 C-65.82795032 70.46979438 -65.84811106 75.24033943 -65.86322021 80.01123047 C-65.88286673 84.89171079 -65.92482801 89.77199546 -65.96484375 94.65234375 C-66.03992018 104.20566851 -66.09034788 113.758949 -66.125 123.3125 C-66.785 123.3125 -67.445 123.3125 -68.125 123.3125 C-68.125 123.9725 -68.125 124.6325 -68.125 125.3125 C-73.0899912 126.60546646 -78.03226908 126.49630962 -83.125 126.5 C-84.01445312 126.51224609 -84.90390625 126.52449219 -85.8203125 126.53710938 C-94.0952271 126.5556353 -94.0952271 126.5556353 -98.125 124.3125 C-100.66316322 121.77433678 -100.37604861 120.90184541 -100.37896729 117.38465881 C-100.38742676 115.82200539 -100.38742676 115.82200539 -100.39605713 114.2277832 C-100.39200867 113.08019531 -100.38796021 111.93260742 -100.38378906 110.75024414 C-100.3872937 109.54532822 -100.39079834 108.34041229 -100.39440918 107.09898376 C-100.40171848 103.78900135 -100.39998377 100.47926799 -100.39365101 97.16929936 C-100.38859615 93.70868288 -100.39328113 90.24807722 -100.39642334 86.78746033 C-100.40006498 80.97425419 -100.39525923 75.16109882 -100.38574219 69.34790039 C-100.37486234 62.62458825 -100.37837895 55.90139744 -100.389395 49.17808825 C-100.39846836 43.40988534 -100.39975276 37.64171899 -100.39451766 31.87351125 C-100.39139756 28.4266053 -100.39098958 24.97975638 -100.39759064 21.53285408 C-100.4044356 17.68990482 -100.39495047 13.84709162 -100.38378906 10.00415039 C-100.38783752 8.85858673 -100.39188599 7.71302307 -100.39605713 6.53274536 C-100.39041748 5.48815659 -100.38477783 4.44356781 -100.37896729 3.36732483 C-100.37821323 2.45826921 -100.37745918 1.54921358 -100.37668228 0.61261082 C-100.125 -1.6875 -100.125 -1.6875 -98.125 -4.6875 C-93.26225189 -6.30841604 -88.28010494 -5.95530189 -83.1875 -6 C-82.08986328 -6.02900391 -80.99222656 -6.05800781 -79.86132812 -6.08789062 C-78.80494141 -6.09626953 -77.74855469 -6.10464844 -76.66015625 -6.11328125 C-75.694729 -6.12786377 -74.72930176 -6.14244629 -73.73461914 -6.1574707 C-70.38757802 -5.55469644 -69.21522887 -4.31161132 -67.125 -1.6875 C-66.61744153 1.09392043 -66.93471486 3.4582229 -67.125 6.3125 C-66.30257812 5.70921875 -65.48015625 5.1059375 -64.6328125 4.484375 C-58.09274569 -0.23167859 -51.91810319 -4.31283388 -44.125 -6.6875 C-43.40054688 -6.91050781 -42.67609375 -7.13351562 -41.9296875 -7.36328125 C-27.54541247 -11.15268704 -12.17011344 -8.44886721 0 0 Z " fill="#FCFBFA" transform="translate(239.125,764.6875)"/>
<path d="M0 0 C4.4751474 3.68785295 7.33604959 7.82679452 7.91015625 13.6484375 C8.19128207 21.64218916 6.47369144 27.98686497 1.02246094 34.05566406 C0.29978027 34.80928223 0.29978027 34.80928223 -0.4375 35.578125 C-0.95538086 36.1256543 -1.47326172 36.67318359 -2.00683594 37.23730469 C-26.85991136 62.67072046 -62.12573405 77.28451525 -97.5625 77.703125 C-120.33784057 77.56927591 -142.53982672 71.6059272 -162.3125 60.390625 C-162.90144043 60.05772461 -163.49038086 59.72482422 -164.09716797 59.38183594 C-174.59114343 53.36595648 -183.60085467 46.23128326 -192.25 37.828125 C-193.0843457 37.03305542 -193.0843457 37.03305542 -193.93554688 36.22192383 C-198.31069149 31.86489715 -200.78373682 27.81567661 -201.74609375 21.58203125 C-201.75690134 14.3085216 -200.6719643 9.12428706 -195.734375 3.63671875 C-191.30212963 -0.50603311 -187.1320831 -2.45049051 -180.96484375 -2.70703125 C-171.99723409 -2.36052392 -166.5215915 2.28341331 -160.1875 8.203125 C-141.77469017 24.97709835 -116.03790981 32.36595813 -91.55566406 31.52246094 C-68.11826003 30.14499052 -49.14949576 18.80012921 -31.54296875 4.07421875 C-21.56833313 -4.24563861 -11.64690514 -8.17161893 0 0 Z " fill="#FCFBFA" transform="translate(596.3125,360.609375)"/>
<path d="M0 0 C1.09248047 -0.00515625 2.18496094 -0.0103125 3.31054688 -0.015625 C4.44685547 -0.00015625 5.58316406 0.0153125 6.75390625 0.03125 C8.45256836 0.00804687 8.45256836 0.00804687 10.18554688 -0.015625 C14.84247577 0.0063287 18.34979532 0.06473 22.578125 2.10546875 C25.00156292 5.48738999 24.84675193 7.71073735 24.69140625 11.84375 C24.65789063 13.11863281 24.624375 14.39351562 24.58984375 15.70703125 C24.25058205 22.31963205 23.77269571 28.925891 23.31640625 35.53125 C24.7844873 35.50768433 24.7844873 35.50768433 26.28222656 35.48364258 C29.92000063 35.4292643 33.55773889 35.39487152 37.19580078 35.36645508 C38.76910447 35.35138636 40.34236627 35.33092755 41.91552734 35.30493164 C44.17946721 35.26846262 46.44285082 35.25150492 48.70703125 35.23828125 C49.40822083 35.22279739 50.1094104 35.20731354 50.83184814 35.19136047 C53.83260151 35.19033084 56.04557921 35.39905803 58.75878906 36.72338867 C60.84106815 39.14020319 60.83226891 40.58240708 60.84765625 43.75 C60.85539063 45.27173828 60.85539063 45.27173828 60.86328125 46.82421875 C60.8478125 47.88253906 60.83234375 48.94085937 60.81640625 50.03125 C60.83960938 51.61873047 60.83960938 51.61873047 60.86328125 53.23828125 C60.858125 54.25277344 60.85296875 55.26726563 60.84765625 56.3125 C60.84314453 57.24126953 60.83863281 58.17003906 60.83398438 59.12695312 C60.31640625 61.53125 60.31640625 61.53125 58.74511719 63.32543945 C55.39985157 64.98630263 52.65366283 64.96900285 48.92578125 65.04296875 C48.2211676 65.06091995 47.51655396 65.07887115 46.79058838 65.09736633 C44.54925446 65.15136858 42.3081322 65.18533088 40.06640625 65.21875 C38.54293936 65.25193218 37.01950036 65.28642269 35.49609375 65.32226562 C31.76973465 65.40708738 28.04330162 65.47394724 24.31640625 65.53125 C24.26981697 72.92077521 24.23440317 80.31026811 24.21278191 87.69991112 C24.20239845 91.13218799 24.18834029 94.56436348 24.16552734 97.99658203 C24.13939551 101.95343766 24.12988854 105.91025397 24.12109375 109.8671875 C24.11077118 111.08425385 24.10044861 112.30132019 24.08981323 113.55526733 C24.08024147 126.00287347 24.08024147 126.00287347 28.31640625 137.53125 C31.43424043 138.83253939 34.72582041 138.68387355 38.0703125 138.7421875 C39.72256836 138.78472656 39.72256836 138.78472656 41.40820312 138.828125 C43.72574716 138.88029256 46.0434828 138.92453836 48.36132812 138.9609375 C49.46154297 138.991875 50.56175781 139.0228125 51.6953125 139.0546875 C52.70150635 139.07450684 53.7077002 139.09432617 54.74438477 139.11474609 C57.31640625 139.53125 57.31640625 139.53125 59.140625 140.77807617 C61.46148198 144.2386397 60.78529121 148.4372087 60.75390625 152.46875 C60.77388672 153.37560547 60.79386719 154.28246094 60.81445312 155.21679688 C60.80959338 161.82119264 60.80959338 161.82119264 58.56640625 165.05078125 C48.70581276 171.53891482 33.5352322 170.9634259 22.22314453 169.20605469 C11.21304372 166.8449008 2.92991732 161.56803231 -3.68359375 152.53125 C-10.41297085 142.11224558 -9.96411854 130.21086002 -9.87890625 118.2421875 C-9.87516849 116.68706445 -9.87232513 115.13193901 -9.87033081 113.57681274 C-9.86275439 109.51622833 -9.84315859 105.45579073 -9.82092285 101.39526367 C-9.80033414 97.23878972 -9.79130145 93.08229167 -9.78125 88.92578125 C-9.75990603 80.79420403 -9.72584399 72.66274536 -9.68359375 64.53125 C-10.94816406 64.57765625 -12.21273437 64.6240625 -13.515625 64.671875 C-15.17575766 64.70939212 -16.83591583 64.74579235 -18.49609375 64.78125 C-19.32947266 64.81476563 -20.16285156 64.84828125 -21.02148438 64.8828125 C-27.14091902 64.98111667 -27.14091902 64.98111667 -29.73071289 62.83422852 C-31.52543637 58.49663523 -31.15384328 54.09834258 -31.12109375 49.46875 C-31.14107422 48.46263672 -31.16105469 47.45652344 -31.18164062 46.41992188 C-31.18099609 45.45505859 -31.18035156 44.49019531 -31.1796875 43.49609375 C-31.18154053 42.6155835 -31.18339355 41.73507324 -31.18530273 40.82788086 C-30.68359375 38.53125 -30.68359375 38.53125 -28.89575195 36.75292969 C-25.5643237 34.91312537 -22.15274586 34.95874145 -18.43359375 34.84375 C-17.68851563 34.80958984 -16.9434375 34.77542969 -16.17578125 34.74023438 C-14.34556883 34.65810946 -12.51460706 34.59299347 -10.68359375 34.53125 C-10.67424805 33.6434082 -10.66490234 32.75556641 -10.65527344 31.84082031 C-10.61118694 28.53779081 -10.54954629 25.23604993 -10.47607422 21.93359375 C-10.44789764 20.50598063 -10.42666648 19.07821247 -10.41259766 17.65039062 C-10.39111983 15.59424668 -10.34445401 13.53995998 -10.29296875 11.484375 C-10.27202148 10.24848633 -10.25107422 9.01259766 -10.22949219 7.73925781 C-9.68359375 4.53125 -9.68359375 4.53125 -8.00073242 2.12988281 C-5.13055472 0.1496991 -3.46937069 0.01573793 0 0 Z " fill="#FCFBFB" transform="translate(809.68359375,723.46875)"/>
<path d="M0 0 C5.43016656 4.97873163 8.20349786 9.20445096 8.66870117 16.57226562 C8.35795449 22.20454926 6.66164554 26.80441781 2.43823242 30.64648438 C-2.28853433 33.93918217 -7.05223334 35.54725731 -12.83129883 35.07226562 C-19.44088667 33.39659547 -24.14682188 29.31771387 -29.28833008 25.03710938 C-40.72090092 16.20364834 -53.88090727 14.83908184 -67.83129883 16.07226562 C-79.53432685 18.24269021 -88.70740085 24.04410296 -97.72583008 31.55664062 C-102.65672031 35.10614973 -106.53856069 35.36004494 -112.39770508 34.61132812 C-118.09350766 33.34965757 -121.63317279 29.7552359 -124.83129883 25.07226562 C-126.97804851 20.99344123 -127.29701119 17.65177053 -126.83129883 13.07226562 C-122.75070858 0.21065839 -109.94743459 -6.80121194 -98.83129883 -12.92773438 C-66.8765702 -29.07813874 -26.84135246 -23.31326737 0 0 Z " fill="#FAF9F9" transform="translate(674.831298828125,247.927734375)"/>
<path d="M0 0 C7.22418448 5.30649187 12.61357052 11.25321715 15 20 C16.13188293 30.8181888 15.60983042 39.89562804 9 49 C3.37726691 55.48323521 -3.85499735 59.48720622 -12.3125 60.9375 C-20.89302651 61.53648963 -29.1546646 58.77578956 -36.03125 53.73046875 C-42.46868596 48.0721669 -46.55153568 41.26322713 -47.28125 32.69921875 C-47.53468337 22.86811603 -46.30299199 14.79580588 -40 7 C-29.26117308 -4.07839457 -14.08724211 -9.24645235 0 0 Z " fill="#FBFAF9" transform="translate(399,252)"/>
<path d="M0 0 C0.66 0.33 1.32 0.66 2 1 C1.35417969 1.57363281 0.70835937 2.14726563 0.04296875 2.73828125 C-10.00082773 11.79281187 -19.48891164 21.39176821 -29 31 C-29.66 30.67 -30.32 30.34 -31 30 C-21.87053395 19.08917472 -11.71359467 8.15824886 0 0 Z " fill="#EDE3E3" transform="translate(254,37)"/>
<path d="M0 0 C-1.53218685 3.63061667 -3.7183144 5.9863773 -6.5 8.75 C-7.69109375 9.94882812 -7.69109375 9.94882812 -8.90625 11.171875 C-11 13 -11 13 -13 13 C-11.46781315 9.36938333 -9.2816856 7.0136227 -6.5 4.25 C-5.7059375 3.45078125 -4.911875 2.6515625 -4.09375 1.828125 C-2 0 -2 0 0 0 Z " fill="#EBE2E2" transform="translate(303,767)"/>
<path d="M0 0 C0.33 0 0.66 0 1 0 C1 3.3 1 6.6 1 10 C-1.89377093 8.55311454 -4.18533078 7.24918136 -6.75 5.375 C-7.67039062 4.70597656 -7.67039062 4.70597656 -8.609375 4.0234375 C-9.06828125 3.68570313 -9.5271875 3.34796875 -10 3 C-9.67 2.34 -9.34 1.68 -9 1 C-6.36 2.65 -3.72 4.3 -1 6 C-0.67 4.02 -0.34 2.04 0 0 Z " fill="#CFBEBB" transform="translate(373,764)"/>
<path d="M0 0 C0.66 0 1.32 0 2 0 C2 3.3 2 6.6 2 10 C1.34 9.67 0.68 9.34 0 9 C0.04125 8.21625 0.0825 7.4325 0.125 6.625 C0.28728734 3.83883881 0.28728734 3.83883881 -2 2 C-1.34 1.34 -0.68 0.68 0 0 Z " fill="#E5D7D6" transform="translate(373,873)"/>
</svg>
